<?xml version="1.0" standalone="no"?>
<!DOCTYPE svg PUBLIC "-//W3C//DTD SVG 20010904//EN"
 "http://www.w3.org/TR/2001/REC-SVG-20010904/DTD/svg10.dtd">
<svg version="1.0" xmlns="http://www.w3.org/2000/svg"
 width="1048.000000pt" height="957.000000pt" viewBox="0 0 1048.000000 957.000000"
 preserveAspectRatio="xMidYMid meet">
<metadata>
Created by potrace 1.16, written by Peter Selinger 2001-2019
</metadata>
<g transform="translate(0.000000,957.000000) scale(0.100000,-0.100000)"
fill="#ffffff" stroke="none">
<path d="M5404 9075 c-1046 -99 -1934 -468 -2202 -916 -56 -93 -81 -224 -63
-324 91 -498 1088 -883 2052 -790 219 21 440 69 605 131 155 58 323 159 301
180 -2 3 -71 -6 -153 -20 -230 -38 -343 -48 -549 -48 -345 0 -621 48 -897 158
-395 156 -606 423 -518 656 121 322 755 608 1603 723 492 66 941 58 1321 -26
87 -19 305 -90 379 -123 77 -34 23 37 -85 111 -199 137 -480 227 -870 279
-167 22 -728 28 -924 9z"/>
<path d="M5850 8430 c-263 -14 -515 -55 -747 -121 -174 -50 -335 -132 -225
-115 231 36 624 60 842 53 663 -23 1166 -211 1307 -487 24 -47 28 -67 28 -135
0 -70 -4 -89 -32 -145 -92 -187 -327 -365 -712 -540 -556 -253 -1199 -396
-1686 -377 -395 16 -667 116 -858 316 -38 39 -71 71 -74 71 -3 0 -3 -35 0 -77
20 -292 326 -644 698 -805 310 -133 681 -136 1203 -8 610 149 1274 421 1676
686 365 241 549 498 550 769 0 261 -195 507 -540 680 -341 171 -902 263 -1430
235z"/>
<path d="M2029 7334 c-9 -11 -57 -131 -107 -269 -206 -572 -231 -643 -238
-669 -3 -15 -12 -29 -18 -31 -6 -2 -128 -9 -271 -16 -185 -8 -269 -15 -292
-26 -33 -15 -25 1 -217 -443 l-41 -95 -140 -92 c-77 -51 -152 -106 -167 -122
-29 -32 -43 -74 -53 -156 -7 -54 7 -89 108 -258 24 -40 132 -220 239 -402 107
-181 282 -476 388 -655 356 -601 482 -814 648 -1095 91 -154 217 -368 280
-475 63 -107 198 -337 300 -510 196 -336 228 -378 310 -404 26 -8 191 -42 367
-75 747 -141 1405 -279 1808 -380 264 -67 453 -122 485 -141 20 -12 41 -42 61
-84 72 -150 214 -301 354 -373 192 -101 426 -109 662 -25 220 78 383 197 503
366 30 43 69 87 86 97 79 49 952 321 2220 694 329 97 608 182 618 189 30 21
44 46 62 105 20 69 20 123 0 164 -9 18 -49 73 -89 122 -109 137 -105 112 -46
256 53 130 59 165 39 202 -26 49 -543 781 -1304 1847 -898 1258 -887 1244
-917 1254 -22 8 -41 4 -104 -24 -115 -49 -276 -142 -378 -218 -85 -63 -269
-231 -262 -239 2 -2 64 26 138 61 74 35 178 80 231 100 113 42 290 95 300 89
4 -2 26 -31 51 -66 24 -34 109 -154 188 -267 80 -113 269 -380 419 -595 249
-356 399 -571 832 -1193 81 -118 148 -218 148 -224 0 -6 -9 -8 -22 -4 -48 13
-474 18 -603 7 -498 -44 -950 -198 -1335 -456 -150 -101 -254 -188 -405 -340
-206 -206 -340 -392 -472 -657 -60 -119 -66 -128 -93 -128 -15 0 -57 -9 -92
-20 l-63 -20 -35 38 c-19 21 -70 77 -113 125 -292 325 -773 617 -1237 752
-326 94 -584 128 -1008 130 l-313 1 -38 60 c-20 32 -161 262 -313 509 -151
248 -375 612 -498 810 -123 198 -265 429 -316 513 -176 285 -287 467 -329 537
-44 74 -325 531 -506 826 -60 97 -109 180 -109 186 0 6 47 14 116 18 92 6 119
4 129 -6 7 -8 90 -140 185 -294 211 -341 318 -513 525 -845 166 -267 244 -392
880 -1413 336 -540 393 -626 410 -622 11 3 47 13 80 23 96 27 438 24 610 -6
495 -87 958 -290 1319 -579 155 -123 375 -355 500 -526 28 -37 51 -65 53 -63
2 2 -16 49 -41 105 -106 238 -260 457 -471 666 -459 456 -1059 766 -1676 864
-68 11 -142 21 -164 23 -44 3 -8 -48 -327 468 -636 1030 -1068 1700 -1347
2089 -72 100 -131 189 -131 195 0 11 60 232 184 671 l42 150 36 -2 c20 -1 92
-23 160 -49 320 -122 626 -298 966 -556 78 -59 142 -105 142 -100 0 20 -118
161 -235 281 -289 297 -662 544 -1022 675 -156 57 -202 65 -224 40z m-948
-1987 c141 -238 204 -345 515 -872 199 -340 341 -582 787 -1345 309 -529 590
-1005 608 -1031 15 -22 29 -28 81 -33 98 -11 683 -111 883 -151 556 -111 1059
-239 1423 -361 195 -65 273 -104 331 -162 61 -61 84 -104 83 -157 -1 -91 -15
-275 -21 -275 -13 1 -45 56 -76 133 -61 152 -98 178 -362 258 -464 140 -1125
288 -2078 464 -192 36 -359 67 -371 70 -15 3 -76 99 -219 342 -109 186 -233
397 -276 468 -42 72 -208 353 -369 625 -161 272 -348 587 -415 700 -572 961
-825 1391 -825 1405 0 6 10 21 23 32 23 22 138 102 147 103 3 0 62 -96 131
-213z m8427 -2428 c50 -73 89 -136 86 -140 -3 -5 -33 -9 -68 -9 -129 0 -470
-38 -721 -81 -855 -145 -1614 -490 -2153 -977 l-83 -75 -39 12 c-21 6 -41 15
-44 20 -15 23 287 339 444 464 347 277 768 504 1215 657 349 119 739 204 1135
249 145 16 124 27 228 -120z m201 -755 c23 -26 41 -53 41 -60 0 -15 -4 -16
-270 -89 -1115 -307 -2341 -679 -2496 -758 -60 -30 -123 -97 -159 -167 -25
-50 -99 -140 -115 -140 -5 0 0 22 11 50 23 62 49 205 49 275 0 49 3 55 40 89
22 19 75 54 119 75 143 73 874 308 1421 459 478 132 1211 310 1282 311 31 1
42 -6 77 -45z m-3308 -696 c121 -36 188 -180 160 -344 -25 -139 -121 -281
-228 -334 -56 -28 -145 -37 -196 -21 -47 16 -105 74 -133 135 -45 96 -27 265
38 376 27 46 104 126 146 152 71 44 146 57 213 36z"/>
<path d="M7243 6350 c-314 -303 -1035 -621 -1646 -724 -285 -49 -591 -61 -794
-30 -196 29 -379 105 -506 209 -37 30 -69 55 -71 55 -12 0 39 -151 74 -222
148 -295 371 -469 695 -540 40 -9 129 -13 265 -12 174 1 227 5 350 27 422 76
833 242 1135 460 280 201 489 458 569 697 27 84 43 170 30 170 -5 -1 -50 -41
-101 -90z"/>
<path d="M6599 5174 c-50 -54 -217 -190 -309 -250 -300 -197 -617 -289 -902
-263 -205 19 -354 93 -440 217 -39 56 -50 45 -50 -50 1 -139 61 -270 180 -391
77 -79 147 -131 285 -211 307 -180 479 -388 580 -702 72 -222 103 -487 94
-803 -2 -107 -1 -188 3 -180 40 71 156 474 192 664 32 169 32 462 0 577 -32
118 -78 219 -143 315 -47 71 -59 96 -59 128 0 53 18 79 145 215 203 216 330
403 403 593 38 96 59 167 50 167 -3 0 -15 -12 -29 -26z"/>
</g>
</svg>
